<?xml version='1.0' encoding='utf-8'?>
<svg xmlns="http://www.w3.org/2000/svg" xmlns:xlink="http://www.w3.org/1999/xlink" width="1600" height="1050" viewBox="0 0 1600 1050" version="1.1"><title>DMX Lyre Controller — Wiring Diagram</title><desc>XIAO RP2040 + XBee S1 + 3-Axis Joystick + OLED SSD1306 + 8-Button Resistor Ladder</desc><rect x="0" y="0" width="1600" height="1050" fill="#fafafa" /><text fill="#1a202c" font-size="22" font-weight="700" font-family="system-ui, sans-serif" x="800" y="35" text-anchor="middle">DMX Lyre Controller — Wiring Diagram</text><text fill="#718096" font-size="12" font-family="system-ui, sans-serif" x="800" y="58" text-anchor="middle">XIAO RP2040 · XBee S1 · 3-Axis Joystick · OLED SSD1306 · 8-Button Resistor Ladder</text><text fill="#a0aec0" font-size="12" font-weight="600" letter-spacing="1" font-family="system-ui, sans-serif" x="850" y="92" text-anchor="middle">RESISTOR LADDER — A3</text><line stroke="#38a169" stroke-width="3" fill="none" x1="140" y1="110" x2="1490" y2="110" /><text fill="#38a169" font-size="13" font-weight="700" font-family="system-ui, sans-serif" x="120" y="114" text-anchor="end">A3</text><g id="pullup" transform="translate(190 30)"><line stroke="#e53e3e" stroke-width="2" fill="none" x1="0" y1="0" x2="0" y2="-12" /><polygon fill="#e53e3e" points="-5,-12 0,-20 5,-12" /><text fill="#e53e3e" font-size="10" font-weight="600" font-family="system-ui, sans-serif" x="10" y="-12">3V3</text><line stroke="#dd6b20" stroke-width="2" fill="none" x1="0" y1="0" x2="0" y2="12" /><path stroke="#dd6b20" stroke-width="2.5" fill="none" d="M0,12 L-6,17 L6,27 L-6,37 L6,47 L0,52" /><line stroke="#dd6b20" stroke-width="2" fill="none" x1="0" y1="52" x2="0" y2="80" /><text fill="#dd6b20" font-size="12" font-weight="600" font-family="system-ui, sans-serif" x="14" y="37">2kΩ</text><text fill="#a0aec0" font-size="9" font-family="system-ui, sans-serif" x="14" y="50">pull-up</text></g><circle fill="#2d3748" cx="190" cy="110" r="3.5" /><g id="btn1" transform="translate(300 110)"><circle fill="#2d3748" cx="0" cy="0" r="3.5" /><line stroke="#38a169" stroke-width="1.5" fill="none" x1="0" y1="0" x2="0" y2="22" /><rect fill="#f7fafc" stroke="#a0aec0" stroke-width="1.5" x="-28" y="22" width="56" height="28" rx="4" /><text fill="#2d3748" font-size="10" font-weight="600" font-family="system-ui, sans-serif" x="0" y="40" text-anchor="middle">BTN 1</text><line stroke="#2d3748" stroke-width="1.5" fill="none" x1="0" y1="50" x2="0" y2="68" /><text fill="#dd6b20" font-size="11" font-weight="600" font-family="system-ui, sans-serif" x="34" y="64">0Ω</text><text fill="#718096" font-size="9" font-family="system-ui, sans-serif" x="34" y="76">0.00V</text><line stroke="#2d3748" stroke-width="2" fill="none" x1="0" y1="68" x2="0" y2="76" /><line stroke="#2d3748" stroke-width="2" fill="none" x1="-8" y1="76" x2="8" y2="76" /><line stroke="#2d3748" stroke-width="1.5" fill="none" x1="-5" y1="80" x2="5" y2="80" /><line stroke="#2d3748" stroke-width="1" fill="none" x1="-2" y1="84" x2="2" y2="84" /></g><g id="btn2" transform="translate(470 110)"><circle fill="#2d3748" cx="0" cy="0" r="3.5" /><line stroke="#38a169" stroke-width="1.5" fill="none" x1="0" y1="0" x2="0" y2="22" /><rect fill="#f7fafc" stroke="#a0aec0" stroke-width="1.5" x="-28" y="22" width="56" height="28" rx="4" /><text fill="#2d3748" font-size="10" font-weight="600" font-family="system-ui, sans-serif" x="0" y="40" text-anchor="middle">BTN 2</text><line stroke="#dd6b20" stroke-width="1.5" fill="none" x1="0" y1="50" x2="0" y2="62" /><path stroke="#dd6b20" stroke-width="2.5" fill="none" d="M0,62 L-6,67 L6,77 L-6,87 L6,97 L0,102" /><line stroke="#2d3748" stroke-width="1.5" fill="none" x1="0" y1="102" x2="0" y2="110" /><text fill="#dd6b20" font-size="11" font-weight="600" font-family="system-ui, sans-serif" x="14" y="86">220Ω</text><text fill="#718096" font-size="9" font-family="system-ui, sans-serif" x="14" y="98">0.33V</text><line stroke="#2d3748" stroke-width="2" fill="none" x1="0" y1="110" x2="0" y2="118" /><line stroke="#2d3748" stroke-width="2" fill="none" x1="-8" y1="118" x2="8" y2="118" /><line stroke="#2d3748" stroke-width="1.5" fill="none" x1="-5" y1="122" x2="5" y2="122" /><line stroke="#2d3748" stroke-width="1" fill="none" x1="-2" y1="126" x2="2" y2="126" /></g><g id="btn3" transform="translate(620 110)"><circle fill="#2d3748" cx="0" cy="0" r="3.5" /><line stroke="#38a169" stroke-width="1.5" fill="none" x1="0" y1="0" x2="0" y2="22" /><rect fill="#f7fafc" stroke="#a0aec0" stroke-width="1.5" x="-28" y="22" width="56" height="28" rx="4" /><text fill="#2d3748" font-size="10" font-weight="600" font-family="system-ui, sans-serif" x="0" y="40" text-anchor="middle">BTN 3</text><line stroke="#dd6b20" stroke-width="1.5" fill="none" x1="0" y1="50" x2="0" y2="62" /><path stroke="#dd6b20" stroke-width="2.5" fill="none" d="M0,62 L-6,67 L6,77 L-6,87 L6,97 L0,102" /><line stroke="#2d3748" stroke-width="1.5" fill="none" x1="0" y1="102" x2="0" y2="110" /><text fill="#dd6b20" font-size="11" font-weight="600" font-family="system-ui, sans-serif" x="14" y="86">560Ω</text><text fill="#718096" font-size="9" font-family="system-ui, sans-serif" x="14" y="98">0.72V</text><line stroke="#2d3748" stroke-width="2" fill="none" x1="0" y1="110" x2="0" y2="118" /><line stroke="#2d3748" stroke-width="2" fill="none" x1="-8" y1="118" x2="8" y2="118" /><line stroke="#2d3748" stroke-width="1.5" fill="none" x1="-5" y1="122" x2="5" y2="122" /><line stroke="#2d3748" stroke-width="1" fill="none" x1="-2" y1="126" x2="2" y2="126" /></g><g id="btn4" transform="translate(770 110)"><circle fill="#2d3748" cx="0" cy="0" r="3.5" /><line stroke="#38a169" stroke-width="1.5" fill="none" x1="0" y1="0" x2="0" y2="22" /><rect fill="#f7fafc" stroke="#a0aec0" stroke-width="1.5" x="-28" y="22" width="56" height="28" rx="4" /><text fill="#2d3748" font-size="10" font-weight="600" font-family="system-ui, sans-serif" x="0" y="40" text-anchor="middle">BTN 4</text><line stroke="#dd6b20" stroke-width="1.5" fill="none" x1="0" y1="50" x2="0" y2="62" /><path stroke="#dd6b20" stroke-width="2.5" fill="none" d="M0,62 L-6,67 L6,77 L-6,87 L6,97 L0,102" /><line stroke="#2d3748" stroke-width="1.5" fill="none" x1="0" y1="102" x2="0" y2="110" /><text fill="#dd6b20" font-size="11" font-weight="600" font-family="system-ui, sans-serif" x="14" y="86">1kΩ</text><text fill="#718096" font-size="9" font-family="system-ui, sans-serif" x="14" y="98">1.10V</text><line stroke="#2d3748" stroke-width="2" fill="none" x1="0" y1="110" x2="0" y2="118" /><line stroke="#2d3748" stroke-width="2" fill="none" x1="-8" y1="118" x2="8" y2="118" /><line stroke="#2d3748" stroke-width="1.5" fill="none" x1="-5" y1="122" x2="5" y2="122" /><line stroke="#2d3748" stroke-width="1" fill="none" x1="-2" y1="126" x2="2" y2="126" /></g><g id="btn5" transform="translate(920 110)"><circle fill="#2d3748" cx="0" cy="0" r="3.5" /><line stroke="#38a169" stroke-width="1.5" fill="none" x1="0" y1="0" x2="0" y2="22" /><rect fill="#f7fafc" stroke="#a0aec0" stroke-width="1.5" x="-28" y="22" width="56" height="28" rx="4" /><text fill="#2d3748" font-size="10" font-weight="600" font-family="system-ui, sans-serif" x="0" y="40" text-anchor="middle">BTN 5</text><line stroke="#dd6b20" stroke-width="1.5" fill="none" x1="0" y1="50" x2="0" y2="62" /><path stroke="#dd6b20" stroke-width="2.5" fill="none" d="M0,62 L-6,67 L6,77 L-6,87 L6,97 L0,102" /><line stroke="#2d3748" stroke-width="1.5" fill="none" x1="0" y1="102" x2="0" y2="110" /><text fill="#dd6b20" font-size="11" font-weight="600" font-family="system-ui, sans-serif" x="14" y="86">1.5kΩ</text><text fill="#718096" font-size="9" font-family="system-ui, sans-serif" x="14" y="98">1.41V</text><line stroke="#2d3748" stroke-width="2" fill="none" x1="0" y1="110" x2="0" y2="118" /><line stroke="#2d3748" stroke-width="2" fill="none" x1="-8" y1="118" x2="8" y2="118" /><line stroke="#2d3748" stroke-width="1.5" fill="none" x1="-5" y1="122" x2="5" y2="122" /><line stroke="#2d3748" stroke-width="1" fill="none" x1="-2" y1="126" x2="2" y2="126" /></g><g id="btn6" transform="translate(1070 110)"><circle fill="#2d3748" cx="0" cy="0" r="3.5" /><line stroke="#38a169" stroke-width="1.5" fill="none" x1="0" y1="0" x2="0" y2="22" /><rect fill="#f7fafc" stroke="#a0aec0" stroke-width="1.5" x="-28" y="22" width="56" height="28" rx="4" /><text fill="#2d3748" font-size="10" font-weight="600" font-family="system-ui, sans-serif" x="0" y="40" text-anchor="middle">BTN 6</text><line stroke="#dd6b20" stroke-width="1.5" fill="none" x1="0" y1="50" x2="0" y2="62" /><path stroke="#dd6b20" stroke-width="2.5" fill="none" d="M0,62 L-6,67 L6,77 L-6,87 L6,97 L0,102" /><line stroke="#2d3748" stroke-width="1.5" fill="none" x1="0" y1="102" x2="0" y2="110" /><text fill="#dd6b20" font-size="11" font-weight="600" font-family="system-ui, sans-serif" x="14" y="86">2.7kΩ</text><text fill="#718096" font-size="9" font-family="system-ui, sans-serif" x="14" y="98">1.89V</text><line stroke="#2d3748" stroke-width="2" fill="none" x1="0" y1="110" x2="0" y2="118" /><line stroke="#2d3748" stroke-width="2" fill="none" x1="-8" y1="118" x2="8" y2="118" /><line stroke="#2d3748" stroke-width="1.5" fill="none" x1="-5" y1="122" x2="5" y2="122" /><line stroke="#2d3748" stroke-width="1" fill="none" x1="-2" y1="126" x2="2" y2="126" /></g><g id="btn7" transform="translate(1220 110)"><circle fill="#2d3748" cx="0" cy="0" r="3.5" /><line stroke="#38a169" stroke-width="1.5" fill="none" x1="0" y1="0" x2="0" y2="22" /><rect fill="#f7fafc" stroke="#a0aec0" stroke-width="1.5" x="-28" y="22" width="56" height="28" rx="4" /><text fill="#2d3748" font-size="10" font-weight="600" font-family="system-ui, sans-serif" x="0" y="40" text-anchor="middle">BTN 7</text><line stroke="#dd6b20" stroke-width="1.5" fill="none" x1="0" y1="50" x2="0" y2="62" /><path stroke="#dd6b20" stroke-width="2.5" fill="none" d="M0,62 L-6,67 L6,77 L-6,87 L6,97 L0,102" /><line stroke="#2d3748" stroke-width="1.5" fill="none" x1="0" y1="102" x2="0" y2="110" /><text fill="#dd6b20" font-size="11" font-weight="600" font-family="system-ui, sans-serif" x="14" y="86">3.9kΩ</text><text fill="#718096" font-size="9" font-family="system-ui, sans-serif" x="14" y="98">2.18V</text><line stroke="#2d3748" stroke-width="2" fill="none" x1="0" y1="110" x2="0" y2="118" /><line stroke="#2d3748" stroke-width="2" fill="none" x1="-8" y1="118" x2="8" y2="118" /><line stroke="#2d3748" stroke-width="1.5" fill="none" x1="-5" y1="122" x2="5" y2="122" /><line stroke="#2d3748" stroke-width="1" fill="none" x1="-2" y1="126" x2="2" y2="126" /></g><g id="btn8" transform="translate(1400 110)"><circle fill="#2d3748" cx="0" cy="0" r="3.5" /><line stroke="#38a169" stroke-width="1.5" fill="none" x1="0" y1="0" x2="0" y2="22" /><rect fill="#f7fafc" stroke="#a0aec0" stroke-width="1.5" x="-28" y="22" width="56" height="28" rx="4" /><text fill="#2d3748" font-size="10" font-weight="600" font-family="system-ui, sans-serif" x="0" y="40" text-anchor="middle">BTN 8</text><line stroke="#dd6b20" stroke-width="1.5" fill="none" x1="0" y1="50" x2="0" y2="62" /><path stroke="#dd6b20" stroke-width="2.5" fill="none" d="M0,62 L-6,67 L6,77 L-6,87 L6,97 L0,102" /><line stroke="#2d3748" stroke-width="1.5" fill="none" x1="0" y1="102" x2="0" y2="110" /><text fill="#dd6b20" font-size="11" font-weight="600" font-family="system-ui, sans-serif" x="14" y="86">6.8kΩ</text><text fill="#718096" font-size="9" font-family="system-ui, sans-serif" x="14" y="98">2.55V</text><line stroke="#2d3748" stroke-width="2" fill="none" x1="0" y1="110" x2="0" y2="118" /><line stroke="#2d3748" stroke-width="2" fill="none" x1="-8" y1="118" x2="8" y2="118" /><line stroke="#2d3748" stroke-width="1.5" fill="none" x1="-5" y1="122" x2="5" y2="122" /><line stroke="#2d3748" stroke-width="1" fill="none" x1="-2" y1="126" x2="2" y2="126" /></g><path stroke="#38a169" stroke-width="2" fill="none" d="M190,110 L190,380 L520,380 L520,625 L597,625" /><text fill="#38a169" font-size="11" font-weight="600" font-family="system-ui, sans-serif" x="198" y="375">A3</text><g id="xiao" transform="translate(600 420)"><rect fill="#1a365d" stroke="#2d3748" stroke-width="2.5" x="0" y="0" width="180" height="280" rx="8" /><rect fill="#a0aec0" stroke="#718096" stroke-width="1.5" x="65" y="-12" width="50" height="20" rx="3" /><text fill="#4a5568" font-size="7" font-family="system-ui, sans-serif" x="90" y="4" text-anchor="middle">USB-C</text><text fill="#fff" font-size="18" font-weight="700" font-family="system-ui, sans-serif" x="90" y="48" text-anchor="middle">XIAO</text><text fill="#90cdf4" font-size="13" font-family="system-ui, sans-serif" x="90" y="68" text-anchor="middle">RP2040</text><circle fill="#38a169" cx="-3" cy="100" r="4" /><text fill="#2d3748" font-size="11" font-weight="600" font-family="system-ui, sans-serif" x="-14" y="104" text-anchor="end">A0/D0</text><circle fill="#38a169" cx="-3" cy="135" r="4" /><text fill="#2d3748" font-size="11" font-weight="600" font-family="system-ui, sans-serif" x="-14" y="139" text-anchor="end">A1/D1</text><circle fill="#38a169" cx="-3" cy="170" r="4" /><text fill="#2d3748" font-size="11" font-weight="600" font-family="system-ui, sans-serif" x="-14" y="174" text-anchor="end">A2/D2</text><circle fill="#38a169" cx="-3" cy="205" r="4" /><text fill="#2d3748" font-size="11" font-weight="600" font-family="system-ui, sans-serif" x="-14" y="209" text-anchor="end">A3/D3</text><circle fill="#805ad5" cx="-3" cy="240" r="4" /><text fill="#805ad5" font-size="11" font-weight="600" font-family="system-ui, sans-serif" x="-14" y="244" text-anchor="end">SDA/D4</text><circle fill="#805ad5" cx="-3" cy="275" r="4" /><text fill="#805ad5" font-size="11" font-weight="600" font-family="system-ui, sans-serif" x="-14" y="279" text-anchor="end">SCL/D5</text><circle fill="#e53e3e" cx="183" cy="100" r="4" /><text fill="#e53e3e" font-size="11" font-weight="600" font-family="system-ui, sans-serif" x="196" y="104">5V</text><circle fill="#2d3748" cx="183" cy="135" r="4" /><text fill="#2d3748" font-size="11" font-weight="600" font-family="system-ui, sans-serif" x="196" y="139">GND</text><circle fill="#e53e3e" cx="183" cy="170" r="4" /><text fill="#e53e3e" font-size="11" font-weight="600" font-family="system-ui, sans-serif" x="196" y="174">3V3</text><circle fill="#a0aec0" cx="183" cy="205" r="4" /><text fill="#718096" font-size="11" font-family="system-ui, sans-serif" x="196" y="209">D10</text><circle fill="#a0aec0" cx="183" cy="240" r="4" /><text fill="#718096" font-size="11" font-family="system-ui, sans-serif" x="196" y="244">D9</text><circle fill="#a0aec0" cx="183" cy="275" r="4" /><text fill="#718096" font-size="11" font-family="system-ui, sans-serif" x="196" y="279">D8</text><circle fill="#3182ce" cx="45" cy="283" r="4" /><text fill="#3182ce" font-size="11" font-weight="600" font-family="system-ui, sans-serif" x="45" y="302" text-anchor="middle">TX/D6</text><circle fill="#3182ce" cx="135" cy="283" r="4" /><text fill="#3182ce" font-size="11" font-weight="600" font-family="system-ui, sans-serif" x="135" y="302" text-anchor="middle">RX/D7</text></g><g id="xbee" transform="translate(80 440)"><rect fill="#ebf8ff" stroke="#2d3748" stroke-width="2" x="0" y="0" width="170" height="200" rx="6" /><rect fill="#2b6cb0" x="0" y="0" width="170" height="30" rx="6" /><rect fill="#2b6cb0" x="0" y="15" width="170" height="15" /><text fill="#fff" font-size="13" font-weight="700" font-family="system-ui, sans-serif" x="85" y="22" text-anchor="middle">XBee S1</text><text fill="#4a5568" font-size="10" font-family="system-ui, sans-serif" x="85" y="52" text-anchor="middle">802.15.4 Radio</text><path stroke="#2b6cb0" stroke-width="2" fill="none" d="M75,65 L85,48 L95,65" /><line stroke="#2b6cb0" stroke-width="2" fill="none" x1="85" y1="65" x2="85" y2="80" /><circle fill="#e53e3e" cx="174" cy="100" r="4" /><text fill="#4a5568" font-size="11" font-family="system-ui, sans-serif" x="165" y="104" text-anchor="end">VCC</text><circle fill="#2d3748" cx="174" cy="130" r="4" /><text fill="#4a5568" font-size="11" font-family="system-ui, sans-serif" x="165" y="134" text-anchor="end">GND</text><circle fill="#3182ce" cx="174" cy="160" r="4" /><text fill="#4a5568" font-size="11" font-family="system-ui, sans-serif" x="165" y="164" text-anchor="end">DIN (3)</text><circle fill="#3182ce" cx="174" cy="190" r="4" /><text fill="#4a5568" font-size="11" font-family="system-ui, sans-serif" x="165" y="194" text-anchor="end">DOUT (2)</text></g><g id="xbee-pwr" transform="translate(290 535)"><line stroke="#e53e3e" stroke-width="2" fill="none" x1="0" y1="0" x2="0" y2="-12" /><polygon fill="#e53e3e" points="-5,-12 0,-20 5,-12" /><text fill="#e53e3e" font-size="10" font-weight="600" font-family="system-ui, sans-serif" x="10" y="-12">3V3</text></g><line stroke="#e53e3e" stroke-width="2" fill="none" x1="254" y1="540" x2="290" y2="540" /><g id="xbee-gnd" transform="translate(290 574)"><line stroke="#2d3748" stroke-width="2" fill="none" x1="0" y1="0" x2="0" y2="8" /><line stroke="#2d3748" stroke-width="2" fill="none" x1="-8" y1="8" x2="8" y2="8" /><line stroke="#2d3748" stroke-width="1.5" fill="none" x1="-5" y1="12" x2="5" y2="12" /><line stroke="#2d3748" stroke-width="1" fill="none" x1="-2" y1="16" x2="2" y2="16" /></g><line stroke="#2d3748" stroke-width="2" fill="none" x1="254" y1="570" x2="290" y2="570" /><path stroke="#3182ce" stroke-width="2" fill="none" d="M254,600 L380,600 L380,740 L645,740 L645,703" /><text fill="#3182ce" font-size="10" font-weight="600" font-family="system-ui, sans-serif" x="390" y="596">TX → DIN</text><path stroke="#3182ce" stroke-width="2" fill="none" d="M254,630 L400,630 L400,755 L735,755 L735,703" /><text fill="#3182ce" font-size="10" font-weight="600" font-family="system-ui, sans-serif" x="410" y="626">DOUT → RX</text><g id="joystick" transform="translate(80 780)"><rect fill="#f0fff4" stroke="#2d3748" stroke-width="2" x="0" y="0" width="170" height="180" rx="6" /><rect fill="#38a169" x="0" y="0" width="170" height="30" rx="6" /><rect fill="#38a169" x="0" y="15" width="170" height="15" /><text fill="#fff" font-size="13" font-weight="700" font-family="system-ui, sans-serif" x="85" y="22" text-anchor="middle">Joystick 3-Axis</text><circle fill="#e2e8f0" stroke="#a0aec0" stroke-width="2" cx="85" cy="85" r="28" /><circle fill="#a0aec0" stroke="#718096" stroke-width="1.5" cx="85" cy="82" r="13" /><circle fill="#38a169" cx="174" cy="125" r="4" /><text fill="#4a5568" font-size="11" font-family="system-ui, sans-serif" x="165" y="129" text-anchor="end">VRx</text><circle fill="#38a169" cx="174" cy="145" r="4" /><text fill="#4a5568" font-size="11" font-family="system-ui, sans-serif" x="165" y="149" text-anchor="end">VRy</text><circle fill="#38a169" cx="174" cy="165" r="4" /><text fill="#4a5568" font-size="11" font-family="system-ui, sans-serif" x="165" y="169" text-anchor="end">VRz</text></g><g id="joy-pwr" transform="translate(290 895)"><line stroke="#e53e3e" stroke-width="2" fill="none" x1="0" y1="0" x2="0" y2="-12" /><polygon fill="#e53e3e" points="-5,-12 0,-20 5,-12" /><text fill="#e53e3e" font-size="10" font-weight="600" font-family="system-ui, sans-serif" x="10" y="-12">3V3</text></g><g id="joy-gnd" transform="translate(290 925)"><line stroke="#2d3748" stroke-width="2" fill="none" x1="0" y1="0" x2="0" y2="8" /><line stroke="#2d3748" stroke-width="2" fill="none" x1="-8" y1="8" x2="8" y2="8" /><line stroke="#2d3748" stroke-width="1.5" fill="none" x1="-5" y1="12" x2="5" y2="12" /><line stroke="#2d3748" stroke-width="1" fill="none" x1="-2" y1="16" x2="2" y2="16" /></g><path stroke="#38a169" stroke-width="2" fill="none" d="M254,905 L480,905 L480,520 L597,520" /><text fill="#38a169" font-size="10" font-weight="600" font-family="system-ui, sans-serif" transform="rotate(-90 488 710)" x="488" y="710">VRx → A0</text><path stroke="#38a169" stroke-width="2" fill="none" d="M254,925 L500,925 L500,555 L597,555" /><text fill="#38a169" font-size="10" font-weight="600" font-family="system-ui, sans-serif" transform="rotate(-90 508 710)" x="508" y="710">VRy → A1</text><path stroke="#38a169" stroke-width="2" fill="none" d="M254,945 L520,945 L520,590 L597,590" /><text fill="#38a169" font-size="10" font-weight="600" font-family="system-ui, sans-serif" transform="rotate(-90 528 710)" x="528" y="710">VRz → A2</text><g id="oled" transform="translate(1100 440)"><rect fill="#faf5ff" stroke="#2d3748" stroke-width="2" x="0" y="0" width="200" height="190" rx="6" /><rect fill="#805ad5" x="0" y="0" width="200" height="30" rx="6" /><rect fill="#805ad5" x="0" y="15" width="200" height="15" /><text fill="#fff" font-size="13" font-weight="700" font-family="system-ui, sans-serif" x="100" y="22" text-anchor="middle">OLED SSD1306</text><text fill="#4a5568" font-size="10" font-family="system-ui, sans-serif" x="100" y="50" text-anchor="middle">128×64 I2C</text><rect fill="#1a202c" stroke="#4a5568" x="30" y="60" width="140" height="75" rx="4" /><text fill="#63b3ed" font-size="12" font-family="system-ui, sans-serif" x="100" y="103" text-anchor="middle">DMX Console</text><circle fill="#e53e3e" cx="-4" cy="145" r="4" /><text fill="#4a5568" font-size="11" font-family="system-ui, sans-serif" x="12" y="149">VCC</text><circle fill="#2d3748" cx="-4" cy="165" r="4" /><text fill="#4a5568" font-size="11" font-family="system-ui, sans-serif" x="12" y="169">GND</text><circle fill="#805ad5" cx="-4" cy="185" r="4" /><text fill="#4a5568" font-size="11" font-family="system-ui, sans-serif" x="12" y="189">SDA</text><circle fill="#805ad5" cx="-4" cy="200" r="4" /><text fill="#4a5568" font-size="11" font-family="system-ui, sans-serif" x="12" y="204">SCL</text></g><g id="oled-pwr" transform="translate(1060 580)"><line stroke="#e53e3e" stroke-width="2" fill="none" x1="0" y1="0" x2="0" y2="-12" /><polygon fill="#e53e3e" points="-5,-12 0,-20 5,-12" /><text fill="#e53e3e" font-size="10" font-weight="600" font-family="system-ui, sans-serif" x="10" y="-12">3V3</text></g><line stroke="#e53e3e" stroke-width="2" fill="none" x1="1096" y1="585" x2="1060" y2="585" /><g id="oled-gnd" transform="translate(1060 610)"><line stroke="#2d3748" stroke-width="2" fill="none" x1="0" y1="0" x2="0" y2="8" /><line stroke="#2d3748" stroke-width="2" fill="none" x1="-8" y1="8" x2="8" y2="8" /><line stroke="#2d3748" stroke-width="1.5" fill="none" x1="-5" y1="12" x2="5" y2="12" /><line stroke="#2d3748" stroke-width="1" fill="none" x1="-2" y1="16" x2="2" y2="16" /></g><line stroke="#2d3748" stroke-width="2" fill="none" x1="1096" y1="605" x2="1060" y2="605" /><path stroke="#805ad5" stroke-width="2" fill="none" d="M1096,625 L980,625 L980,660 L780,660" /><text fill="#805ad5" font-size="10" font-weight="600" font-family="system-ui, sans-serif" x="890" y="655">SDA</text><path stroke="#805ad5" stroke-width="2" fill="none" d="M1096,640 L1000,640 L1000,695 L780,695" /><text fill="#805ad5" font-size="10" font-weight="600" font-family="system-ui, sans-serif" x="890" y="690">SCL</text><g id="xiao-pwr" transform="translate(830 585)"><line stroke="#e53e3e" stroke-width="2" fill="none" x1="0" y1="0" x2="0" y2="-12" /><polygon fill="#e53e3e" points="-5,-12 0,-20 5,-12" /><text fill="#e53e3e" font-size="10" font-weight="600" font-family="system-ui, sans-serif" x="10" y="-12">3V3</text></g><line stroke="#e53e3e" stroke-width="2" fill="none" x1="783" y1="590" x2="830" y2="590" /><g id="xiao-gnd" transform="translate(830 560)"><line stroke="#2d3748" stroke-width="2" fill="none" x1="0" y1="0" x2="0" y2="8" /><line stroke="#2d3748" stroke-width="2" fill="none" x1="-8" y1="8" x2="8" y2="8" /><line stroke="#2d3748" stroke-width="1.5" fill="none" x1="-5" y1="12" x2="5" y2="12" /><line stroke="#2d3748" stroke-width="1" fill="none" x1="-2" y1="16" x2="2" y2="16" /></g><line stroke="#2d3748" stroke-width="2" fill="none" x1="783" y1="555" x2="830" y2="555" /><g id="legend" transform="translate(1050 800)"><rect fill="#fff" stroke="#e2e8f0" stroke-width="1.5" x="0" y="0" width="420" height="160" rx="8" /><text fill="#2d3748" font-size="14" font-weight="700" font-family="system-ui, sans-serif" x="210" y="24" text-anchor="middle">Legend</text><line stroke="#e53e3e" stroke-width="2.5" fill="none" x1="20" y1="48" x2="55" y2="48" /><text fill="#4a5568" font-size="11" font-family="system-ui, sans-serif" x="65" y="52">3.3V Power</text><line stroke="#2d3748" stroke-width="2.5" fill="none" x1="20" y1="70" x2="55" y2="70" /><text fill="#4a5568" font-size="11" font-family="system-ui, sans-serif" x="65" y="74">GND</text><line stroke="#38a169" stroke-width="2" fill="none" x1="20" y1="92" x2="55" y2="92" /><text fill="#4a5568" font-size="11" font-family="system-ui, sans-serif" x="65" y="96">Analog (A0-A3)</text><line stroke="#3182ce" stroke-width="2" fill="none" x1="20" y1="114" x2="55" y2="114" /><text fill="#4a5568" font-size="11" font-family="system-ui, sans-serif" x="65" y="118">UART (TX/RX)</text><line stroke="#805ad5" stroke-width="2" fill="none" x1="20" y1="136" x2="55" y2="136" /><text fill="#4a5568" font-size="11" font-family="system-ui, sans-serif" x="65" y="140">I2C (SDA/SCL)</text><path stroke="#dd6b20" stroke-width="2.5" fill="none" d="M230,42 L224,47 L236,57 L224,67 L236,77 L230,82" /><text fill="#4a5568" font-size="11" font-family="system-ui, sans-serif" x="248" y="66">Resistor</text><rect fill="#f7fafc" stroke="#a0aec0" stroke-width="1.5" x="222" y="90" width="30" height="18" rx="3" /><text fill="#4a5568" font-size="11" font-family="system-ui, sans-serif" x="260" y="103">Push Button</text></g><g id="formula" transform="translate(500 800)"><rect fill="#fffff0" stroke="#ecc94b" stroke-width="1.5" x="0" y="0" width="420" height="70" rx="6" /><text fill="#975a16" font-size="12" font-weight="700" font-family="system-ui, sans-serif" x="15" y="24">⚡ Voltage divider formula:</text><text fill="#744210" font-size="14" font-weight="600" font-family="Courier New, monospace" x="15" y="46">V_A3 = 3.3 × R_btn / (2kΩ + R_btn)</text><text fill="#975a16" font-size="10" font-family="system-ui, sans-serif" x="15" y="62">Each button → unique voltage → unique ADC reading</text></g><text fill="#a0aec0" font-size="10" font-family="system-ui, sans-serif" x="60" y="1020">PIN SUMMARY: A0→Joy X · A1→Joy Y · A2→Joy Z · A3→8 Buttons · D4→SDA · D5→SCL · D6/TX→XBee DIN · D7/RX→XBee DOUT</text><text fill="#cbd5e0" font-size="9" font-family="system-ui, sans-serif" x="60" y="1038">Free pins: D8, D9, D10, 5V</text></svg>